{"accessors":[{"bufferView":0,"componentType":5126,"count":204,"max":[15.000009536743164,50.0,2.25],"min":[-15.0,0.0,-1.25],"normalized":false,"type":"VEC3"},{"bufferView":1,"componentType":5126,"count":204,"max":[1.0,6.13657757639885e-05,1.0,1.0],"min":[-0.999998927116394,-0.9999994039535522,-1.0,1.0],"normalized":false,"type":"VEC4"},{"bufferView":2,"componentType":5126,"count":204,"max":[1.0,1.0,1.0],"min":[-1.0,-1.0,-1.0],"normalized":false,"type":"VEC3"},{"bufferView":3,"componentType":5126,"count":204,"max":[0.48372626304626465,0.3970550000667572],"min":[0.0049897003918886185,0.007095445413142443],"normalized":false,"type":"VEC2"},{"bufferView":4,"componentType":5121,"count":414,"max":[203],"min":[0],"normalized":false,"type":"SCALAR"},{"bufferView":5,"componentType":5126,"count":24,"max":[15.0,2.5,15.0],"min":[-15.0,0.0,-15.0],"normalized":false,"type":"VEC3"},{"bufferView":6,"componentType":5126,"count":24,"max":[0.0001220703125,3.0581719329347834e-05,0.9999999403953552,1.0],"min":[-1.0,-3.0456227250397205e-05,-0.9999999403953552,1.0],"normalized":false,"type":"VEC4"},{"bufferView":7,"componentType":5126,"count":24,"max":[1.0,1.0,1.0],"min":[-1.0,-1.0,-1.0],"normalized":false,"type":"VEC3"},{"bufferView":8,"componentType":5126,"count":24,"max":[0.3815213143825531,0.9601129293441772],"min":[0.08726634830236435,0.7476004958152771],"normalized":false,"type":"VEC2"},{"bufferView":9,"componentType":5121,"count":36,"max":[23],"min":[0],"normalized":false,"type":"SCALAR"},{"bufferView":10,"componentType":5126,"count":4,"max":[0.5,0.0,0.5],"min":[-0.5,0.0,-0.5],"normalized":false,"type":"VEC3"},{"bufferView":11,"componentType":5126,"count":4,"max":[1.0,1.5259021893143654e-05,-1.5258657185768243e-05,1.0],"min":[1.0,1.5259021893143654e-05,-1.5258657185768243e-05,1.0],"normalized":false,"type":"VEC4"},{"bufferView":12,"componentType":5126,"count":4,"max":[-1.5258657185768243e-05,1.0,2.3917587895994075e-05],"min":[-1.5258657185768243e-05,1.0,2.3917587895994075e-05],"normalized":false,"type":"VEC3"},{"bufferView":13,"componentType":5126,"count":4,"max":[0.9939574003219604,0.9939574003219604],"min":[0.006027313880622387,0.006027313880622387],"normalized":false,"type":"VEC2"},{"bufferView":14,"componentType":5121,"count":6,"max":[3],"min":[0],"normalized":false,"type":"SCALAR"},{"bufferView":15,"componentType":5126,"count":156,"max":[0.5,0.5,0.9000000953674316],"min":[-0.5,-0.5,-0.5],"normalized":false,"type":"VEC3"},{"bufferView":16,"componentType":5126,"count":156,"max":[1.0,0.0019245437579229474,1.0,1.0],"min":[-0.9999980926513672,-4.5832712203264236e-05,-1.0,1.0],"normalized":false,"type":"VEC4"},{"bufferView":17,"componentType":5126,"count":156,"max":[1.0,1.0,1.0],"min":[-1.0,-1.0,-1.0],"normalized":false,"type":"VEC3"},{"bufferView":18,"componentType":5126,"count":156,"max":[0.4564889073371887,0.3698329031467438],"min":[0.0061799040995538235,0.006775005720555782],"normalized":false,"type":"VEC2"},{"bufferView":19,"componentType":5121,"count":312,"max":[155],"min":[0],"normalized":false,"type":"SCALAR"},{"bufferView":20,"componentType":5126,"count":192,"max":[0.7207107543945313,9.5,0.7207109928131104],"min":[-0.7207107543945313,-0.5,-0.7207109928131104],"normalized":false,"type":"VEC3"},{"bufferView":21,"componentType":5126,"count":192,"max":[1.0,1.0000001192092896,1.0,1.0],"min":[-1.0,-0.00015968084335327148,-1.0,1.0],"normalized":false,"type":"VEC4"},{"bufferView":22,"componentType":5126,"count":192,"max":[1.0,1.0,1.0],"min":[-1.0,-1.0,-1.0],"normalized":false,"type":"VEC3"},{"bufferView":23,"componentType":5126,"count":192,"max":[0.7752193212509155,0.26280614733695984],"min":[0.5135576128959656,0.005951018538326025],"normalized":false,"type":"VEC2"},{"bufferView":24,"componentType":5121,"count":372,"max":[191],"min":[0],"normalized":false,"type":"SCALAR"},{"bufferView":25,"componentType":5126,"count":298,"max":[15.0,50.0,2.25],"min":[-15.0,0.0,-1.25],"normalized":false,"type":"VEC3"},{"bufferView":26,"componentType":5126,"count":298,"max":[1.0,1.0,1.0,1.0],"min":[-0.9999876022338867,-1.0,-1.0,1.0],"normalized":false,"type":"VEC4"},{"bufferView":27,"componentType":5126,"count":298,"max":[1.0,1.0,1.0],"min":[-1.0,-1.0,-1.0],"normalized":false,"type":"VEC3"},{"bufferView":28,"componentType":5126,"count":298,"max":[0.5103074908256531,0.38988327980041504],"min":[0.005065995268523693,0.007431143894791603],"normalized":false,"type":"VEC2"},{"bufferView":29,"componentType":5123,"count":546,"max":[297],"min":[0],"normalized":false,"type":"SCALAR"},{"bufferView":30,"componentType":5126,"count":24,"max":[0.5,0.5,0.5],"min":[-0.5,-0.5,-0.5],"normalized":false,"type":"VEC3"},{"bufferView":31,"componentType":5126,"count":24,"max":[1.0,1.5259021893143654e-05,1.0,1.0],"min":[2.391735506535042e-05,-3.0518509447574615e-05,-1.0,1.0],"normalized":false,"type":"VEC4"},{"bufferView":32,"componentType":5126,"count":24,"max":[1.0,1.0,1.0],"min":[-1.0,-1.0,-1.0],"normalized":false,"type":"VEC3"},{"bufferView":33,"componentType":5126,"count":24,"max":[0.9520714282989502,0.4141145944595337],"min":[0.8166170716285706,0.0077668423764407635],"normalized":false,"type":"VEC2"},{"bufferView":34,"componentType":5126,"count":312,"max":[7.5,50.0,25.0],"min":[-7.5,0.0,-25.0],"normalized":false,"type":"VEC3"},{"bufferView":35,"componentType":5126,"count":312,"max":[1.0,0.9999593496322632,4.793690095539205e-05,1.0],"min":[-1.0,-4.793690095539205e-05,-0.9999990463256836,1.0],"normalized":false,"type":"VEC4"},{"bufferView":36,"componentType":5126,"count":312,"max":[1.0,1.0,1.0],"min":[-1.0,-1.0,-1.0],"normalized":false,"type":"VEC3"},{"bufferView":37,"componentType":5126,"count":312,"max":[0.9934691190719604,0.9965056777000427],"min":[0.60874342918396,0.7425650358200073],"normalized":false,"type":"VEC2"},{"bufferView":38,"componentType":5123,"count":612,"max":[311],"min":[0],"normalized":false,"type":"SCALAR"},{"bufferView":39,"componentType":5126,"count":36,"max":[15.0,10.0,2.25],"min":[-15.0,0.0,-1.25],"normalized":false,"type":"VEC3"},{"bufferView":40,"componentType":5126,"count":36,"max":[1.0,1.5259021893143654e-05,0.9999998211860657,1.0],"min":[-0.9999997615814209,-0.0006412723450921476,-0.9999998211860657,1.0],"normalized":false,"type":"VEC4"},{"bufferView":41,"componentType":5126,"count":36,"max":[1.0,1.0,1.0],"min":[-1.0,-1.0,-1.0],"normalized":false,"type":"VEC3"},{"bufferView":42,"componentType":5126,"count":36,"max":[0.37512779235839844,0.6441138386726379],"min":[0.24779126048088074,0.5496605038642883],"normalized":false,"type":"VEC2"},{"bufferView":43,"componentType":5121,"count":60,"max":[35],"min":[0],"normalized":false,"type":"SCALAR"},{"bufferView":44,"componentType":5126,"count":136,"max":[15.0,10.0,1.25],"min":[-15.0,0.0,-1.25],"normalized":false,"type":"VEC3"},{"bufferView":45,"componentType":5126,"count":136,"max":[1.0,1.0,0.00011751055717468262,1.0],"min":[-0.9999964237213135,-1.0,-0.00011929869651794434,1.0],"normalized":false,"type":"VEC4"},{"bufferView":46,"componentType":5126,"count":136,"max":[1.0,1.0,1.0],"min":[-1.0,-1.0,-1.0],"normalized":false,"type":"VEC3"},{"bufferView":47,"componentType":5126,"count":136,"max":[0.18513771891593933,0.879179060459137],"min":[0.005615320056676865,0.7441061735153198],"normalized":false,"type":"VEC2"},{"bufferView":48,"componentType":5121,"count":264,"max":[135],"min":[0],"normalized":false,"type":"SCALAR"},{"bufferView":49,"componentType":5126,"count":36,"max":[15.0,50.0,2.25],"min":[-15.0,-1.487525380650112e-16,-1.25],"normalized":false,"type":"VEC3"},{"bufferView":50,"componentType":5126,"count":36,"max":[1.0,0.0005037885857746005,0.9999672770500183,1.0],"min":[-0.9999998807907104,-0.00809088908135891,-0.9999998807907104,1.0],"normalized":false,"type":"VEC4"},{"bufferView":51,"componentType":5126,"count":36,"max":[1.0,1.0,1.0],"min":[-1.0,-1.0,-1.0],"normalized":false,"type":"VEC3"},{"bufferView":52,"componentType":5126,"count":36,"max":[0.6243534088134766,0.6649576425552368],"min":[0.4299076795578003,0.5165483951568604],"normalized":false,"type":"VEC2"},{"bufferView":53,"componentType":5121,"count":60,"max":[35],"min":[0],"normalized":false,"type":"SCALAR"},{"bufferView":54,"componentType":5126,"count":32,"max":[3.75,21.52931022644043,3.75],"min":[-3.75,0.0,-3.75],"normalized":false,"type":"VEC3"},{"bufferView":55,"componentType":5126,"count":32,"max":[1.0,0.867132306098938,1.0,1.0],"min":[2.391735506535042e-05,-0.8671766519546509,-1.0,1.0],"normalized":false,"type":"VEC4"},{"bufferView":56,"componentType":5126,"count":32,"max":[1.0,0.4980771839618683,1.0],"min":[-1.0,-1.0,-1.0],"normalized":false,"type":"VEC3"},{"bufferView":57,"componentType":5126,"count":32,"max":[0.9936522245407104,0.545983076095581],"min":[0.8314946293830872,0.41733425855636597],"normalized":false,"type":"VEC2"},{"bufferView":58,"componentType":5121,"count":42,"max":[31],"min":[0],"normalized":false,"type":"SCALAR"}],"asset":{"generator":"Godot Engine v4.6.2.stable.official@71f334935c000924d403448e698df4441130df18","version":"2.0"},"bufferViews":[{"buffer":0,"byteLength":2448,"byteStride":12,"target":34962},{"buffer":0,"byteLength":3264,"byteOffset":2448,"byteStride":16,"target":34962},{"buffer":0,"byteLength":2448,"byteOffset":5712,"byteStride":12,"target":34962},{"buffer":0,"byteLength":1632,"byteOffset":8160,"byteStride":8,"target":34962},{"buffer":0,"byteLength":414,"byteOffset":9792,"target":34963},{"buffer":0,"byteLength":288,"byteOffset":10208,"byteStride":12,"target":34962},{"buffer":0,"byteLength":384,"byteOffset":10496,"byteStride":16,"target":34962},{"buffer":0,"byteLength":288,"byteOffset":10880,"byteStride":12,"target":34962},{"buffer":0,"byteLength":192,"byteOffset":11168,"byteStride":8,"target":34962},{"buffer":0,"byteLength":36,"byteOffset":11360,"target":34963},{"buffer":0,"byteLength":48,"byteOffset":11396,"byteStride":12,"target":34962},{"buffer":0,"byteLength":64,"byteOffset":11444,"byteStride":16,"target":34962},{"buffer":0,"byteLength":48,"byteOffset":11508,"byteStride":12,"target":34962},{"buffer":0,"byteLength":32,"byteOffset":11556,"byteStride":8,"target":34962},{"buffer":0,"byteLength":6,"byteOffset":11588,"target":34963},{"buffer":0,"byteLength":1872,"byteOffset":11596,"byteStride":12,"target":34962},{"buffer":0,"byteLength":2496,"byteOffset":13468,"byteStride":16,"target":34962},{"buffer":0,"byteLength":1872,"byteOffset":15964,"byteStride":12,"target":34962},{"buffer":0,"byteLength":1248,"byteOffset":17836,"byteStride":8,"target":34962},{"buffer":0,"byteLength":312,"byteOffset":19084,"target":34963},{"buffer":0,"byteLength":2304,"byteOffset":19396,"byteStride":12,"target":34962},{"buffer":0,"byteLength":3072,"byteOffset":21700,"byteStride":16,"target":34962},{"buffer":0,"byteLength":2304,"byteOffset":24772,"byteStride":12,"target":34962},{"buffer":0,"byteLength":1536,"byteOffset":27076,"byteStride":8,"target":34962},{"buffer":0,"byteLength":372,"byteOffset":28612,"target":34963},{"buffer":0,"byteLength":3576,"byteOffset":28984,"byteStride":12,"target":34962},{"buffer":0,"byteLength":4768,"byteOffset":32560,"byteStride":16,"target":34962},{"buffer":0,"byteLength":3576,"byteOffset":37328,"byteStride":12,"target":34962},{"buffer":0,"byteLength":2384,"byteOffset":40904,"byteStride":8,"target":34962},{"buffer":0,"byteLength":1092,"byteOffset":43288,"target":34963},{"buffer":0,"byteLength":288,"byteOffset":44380,"byteStride":12,"target":34962},{"buffer":0,"byteLength":384,"byteOffset":44668,"byteStride":16,"target":34962},{"buffer":0,"byteLength":288,"byteOffset":45052,"byteStride":12,"target":34962},{"buffer":0,"byteLength":192,"byteOffset":45340,"byteStride":8,"target":34962},{"buffer":0,"byteLength":3744,"byteOffset":45532,"byteStride":12,"target":34962},{"buffer":0,"byteLength":4992,"byteOffset":49276,"byteStride":16,"target":34962},{"buffer":0,"byteLength":3744,"byteOffset":54268,"byteStride":12,"target":34962},{"buffer":0,"byteLength":2496,"byteOffset":58012,"byteStride":8,"target":34962},{"buffer":0,"byteLength":1224,"byteOffset":60508,"target":34963},{"buffer":0,"byteLength":432,"byteOffset":61732,"byteStride":12,"target":34962},{"buffer":0,"byteLength":576,"byteOffset":62164,"byteStride":16,"target":34962},{"buffer":0,"byteLength":432,"byteOffset":62740,"byteStride":12,"target":34962},{"buffer":0,"byteLength":288,"byteOffset":63172,"byteStride":8,"target":34962},{"buffer":0,"byteLength":60,"byteOffset":63460,"target":34963},{"buffer":0,"byteLength":1632,"byteOffset":63520,"byteStride":12,"target":34962},{"buffer":0,"byteLength":2176,"byteOffset":65152,"byteStride":16,"target":34962},{"buffer":0,"byteLength":1632,"byteOffset":67328,"byteStride":12,"target":34962},{"buffer":0,"byteLength":1088,"byteOffset":68960,"byteStride":8,"target":34962},{"buffer":0,"byteLength":264,"byteOffset":70048,"target":34963},{"buffer":0,"byteLength":432,"byteOffset":70312,"byteStride":12,"target":34962},{"buffer":0,"byteLength":576,"byteOffset":70744,"byteStride":16,"target":34962},{"buffer":0,"byteLength":432,"byteOffset":71320,"byteStride":12,"target":34962},{"buffer":0,"byteLength":288,"byteOffset":71752,"byteStride":8,"target":34962},{"buffer":0,"byteLength":60,"byteOffset":72040,"target":34963},{"buffer":0,"byteLength":384,"byteOffset":72100,"byteStride":12,"target":34962},{"buffer":0,"byteLength":512,"byteOffset":72484,"byteStride":16,"target":34962},{"buffer":0,"byteLength":384,"byteOffset":72996,"byteStride":12,"target":34962},{"buffer":0,"byteLength":256,"byteOffset":73380,"byteStride":8,"target":34962},{"buffer":0,"byteLength":42,"byteOffset":73636,"target":34963}],"buffers":[{"byteLength":73678,"uri":"models0.bin"}],"extensionsRequired":["KHR_node_visibility"],"extensionsUsed":["GODOT_single_root","KHR_node_visibility"],"images":[{"uri":"textures%2F.jpg"},{"name":"low_poly_black_castle_1","uri":"textures%2Flow_poly_black_castle_1.jpg"},{"name":"low_poly_black_castle_2","uri":"textures%2Flow_poly_black_castle_2.jpg"},{"uri":"textures%2F.jpg"},{"name":"low_poly_black_castle_5","uri":"textures%2Flow_poly_black_castle_5.jpg"},{"name":"low_poly_black_castle_6","uri":"textures%2Flow_poly_black_castle_6.jpg"}],"materials":[{"doubleSided":true,"name":"M_Stone","normalTexture":{"index":2,"scale":1.0},"occlusionTexture":{"index":1},"pbrMetallicRoughness":{"baseColorFactor":[1.0,1.0,1.0,1.0],"baseColorTexture":{"index":0},"metallicFactor":0.0,"metallicRoughnessTexture":{"index":1},"roughnessFactor":1.0}},{"doubleSided":true,"name":"M_Ground","normalTexture":{"index":5,"scale":1.0},"pbrMetallicRoughness":{"baseColorFactor":[1.0,1.0,1.0,1.0],"baseColorTexture":{"index":3},"metallicFactor":0.0,"metallicRoughnessTexture":{"index":4},"roughnessFactor":1.0}}],"meshes":[{"name":"Sketchfab_Scene_Castle_First_Floor_M_Stone_0","primitives":[{"attributes":{"NORMAL":2,"POSITION":0,"TANGENT":1,"TEXCOORD_0":3},"indices":4,"material":0,"mode":4}]},{"name":"Sketchfab_Scene_Stone_Floor_LowPoly34_M_Stone_0","primitives":[{"attributes":{"NORMAL":7,"POSITION":5,"TANGENT":6,"TEXCOORD_0":8},"indices":9,"material":0,"mode":4}]},{"name":"Sketchfab_Scene_Ground_Plane_M_Ground_0","primitives":[{"attributes":{"NORMAL":12,"POSITION":10,"TANGENT":11,"TEXCOORD_0":13},"indices":14,"material":1,"mode":4}]},{"name":"Sketchfab_Scene_Plain_Wall_LowPoly8_M_Stone_0","primitives":[{"attributes":{"NORMAL":17,"POSITION":15,"TANGENT":16,"TEXCOORD_0":18},"indices":19,"material":0,"mode":4}]},{"name":"Sketchfab_Scene_Pillar_VariantB_LowPoly2_M_Stone_0","primitives":[{"attributes":{"NORMAL":22,"POSITION":20,"TANGENT":21,"TEXCOORD_0":23},"indices":24,"material":0,"mode":4}]},{"name":"Sketchfab_Scene_Wall_Dual_Window_LowPoly1_M_Stone_0","primitives":[{"attributes":{"NORMAL":27,"POSITION":25,"TANGENT":26,"TEXCOORD_0":28},"indices":29,"material":0,"mode":4}]},{"name":"Sketchfab_Scene_Flat_Wall_LowPoly3_M_Stone_0","primitives":[{"attributes":{"NORMAL":32,"POSITION":30,"TANGENT":31,"TEXCOORD_0":33},"indices":9,"material":0,"mode":4}]},{"name":"Sketchfab_Scene_Long_Stairs_Wall_LowPoly1_M_Stone_0","primitives":[{"attributes":{"NORMAL":36,"POSITION":34,"TANGENT":35,"TEXCOORD_0":37},"indices":38,"material":0,"mode":4}]},{"name":"Sketchfab_Scene_Castle_Roof_M_Stone_0","primitives":[{"attributes":{"NORMAL":41,"POSITION":39,"TANGENT":40,"TEXCOORD_0":42},"indices":43,"material":0,"mode":4}]},{"name":"Sketchfab_Scene_Roof_Detail_LowPoly6_M_Stone_0","primitives":[{"attributes":{"NORMAL":46,"POSITION":44,"TANGENT":45,"TEXCOORD_0":47},"indices":48,"material":0,"mode":4}]},{"name":"Sketchfab_Scene_Pillar_VariantB_LowPoly26_M_Stone_0","primitives":[{"attributes":{"NORMAL":22,"POSITION":20,"TANGENT":21,"TEXCOORD_0":23},"indices":24,"material":0,"mode":4}]},{"name":"Sketchfab_Scene_Slanted_Wall_Left_LowPoly2_M_Stone_0","primitives":[{"attributes":{"NORMAL":51,"POSITION":49,"TANGENT":50,"TEXCOORD_0":52},"indices":53,"material":0,"mode":4}]},{"name":"Sketchfab_Scene_Roof_Corner_Pillar_LowPoly18_M_Stone_04","primitives":[{"attributes":{"NORMAL":56,"POSITION":54,"TANGENT":55,"TEXCOORD_0":57},"indices":58,"material":0,"mode":4}]}],"nodes":[{"children":[1,2,3,4,5,6,7,8,9,10,11,12,13],"name":"Node3D"},{"mesh":0,"name":"Castle_First_Floor_M_Stone_0","scale":[0.009999999776482582,0.009999999776482582,0.009999999776482582],"translation":[0.0,0.0,1.0961624383926392]},{"mesh":1,"name":"Stone_Floor_LowPoly34_M_Stone_0","rotation":[7.850462159063936e-17,0.7071067690849304,7.850462159063936e-17,0.7071067690849304],"scale":[0.009999999776482582,0.009999999776482582,0.009999999776482582],"translation":[-0.6349999904632568,3.103073173832811e-16,-1.397499918937683]},{"extensions":{"KHR_node_visibility":{"visible":false}},"mesh":2,"name":"Ground_Plane_M_Ground_0","scale":[5.0,0.009999999776482582,5.0],"translation":[0.0,2.220446049250313e-16,-1.0]},{"mesh":3,"name":"Plain_Wall_LowPoly8_M_Stone_0","rotation":[7.850462159063936e-17,-0.7071067690849304,-7.850462159063936e-17,0.7071067690849304],"scale":[0.29999998211860657,0.5,0.02499999850988388],"translation":[-1.397499918937683,0.25,1.9574575424194336]},{"mesh":4,"name":"Pillar_VariantB_LowPoly2_M_Stone_0","scale":[0.07499999552965164,0.04999999701976776,0.07499999552965164],"translation":[-0.45749998092651367,0.02499999850988388,1.2130857706069946]},{"mesh":5,"name":"Wall_Dual_Window_LowPoly1_M_Stone_0","scale":[0.009999999776482582,0.009999999776482582,0.009999999776482582],"translation":[0.9350000023841858,1.4099832200981251e-16,1.0784600973129272]},{"mesh":6,"name":"Flat_Wall_LowPoly3_M_Stone_0","scale":[0.29999998211860657,0.5,0.03500000014901161],"translation":[-0.29999998211860657,0.25,1.3912545442581177]},{"mesh":7,"name":"Long_Stairs_Wall_LowPoly1_M_Stone_0","scale":[0.009999999776482582,0.009999999776482582,0.009999999776482582],"translation":[-0.07499999552965164,2.8810287806660167e-16,1.7096227407455444]},{"mesh":8,"name":"Castle_Roof_M_Stone_0","scale":[0.009999999776482582,0.009999999776482582,0.009999999776482582],"translation":[0.2971406877040863,0.1576700210571289,1.533437967300415]},{"mesh":9,"name":"Roof_Detail_LowPoly6_M_Stone_0","rotation":[7.850462159063936e-17,0.7071067690849304,7.850462159063936e-17,0.7071067690849304],"scale":[0.009999999776482582,0.009999999776482582,0.009999999776482582],"translation":[-0.4650000035762787,1.5,2.233973979949951]},{"mesh":10,"name":"Pillar_VariantB_LowPoly26_M_Stone_0","scale":[0.07499999552965164,0.04999999701976776,0.07499999552965164],"translation":[0.4675000011920929,1.024999976158142,2.508690357208252]},{"mesh":11,"name":"Slanted_Wall_Left_LowPoly2_M_Stone_0","rotation":[7.850462159063936e-17,0.7071067690849304,7.850462159063936e-17,0.7071067690849304],"scale":[0.009999999776482582,0.009999999776482582,0.009999999776482582],"translation":[-0.7872228026390076,0.5,1.2106335163116455]},{"mesh":12,"name":"Roof_Corner_Pillar_LowPoly18_M_Stone_04","rotation":[7.850462159063936e-17,-0.7071067690849304,-7.850462159063936e-17,0.7071067690849304],"scale":[0.009999999776482582,0.009999999776482582,0.009999999776482582],"translation":[-1.4049999713897705,1.5,1.217721939086914]}],"samplers":[{"magFilter":9729,"minFilter":9987,"wrapS":10497,"wrapT":10497}],"scene":0,"scenes":[{"nodes":[0]}],"textures":[{"sampler":0,"source":0},{"sampler":0,"source":1},{"sampler":0,"source":2},{"sampler":0,"source":3},{"sampler":0,"source":4},{"sampler":0,"source":5}]}