{"accessors":[{"bufferView":0,"componentType":5126,"count":71,"max":[0.16617590188980103,6.824653148651123,-7.710503578186035],"min":[-0.21018028259277344,6.068482398986816,-8.098094940185547],"normalized":false,"type":"VEC3"},{"bufferView":1,"componentType":5126,"count":71,"max":[1.0,0.9999956488609314,0.999995768070221,1.0],"min":[-0.9998632669448853,-0.9999812245368958,-0.9999998211860657,-1.0],"normalized":false,"type":"VEC4"},{"bufferView":2,"componentType":5126,"count":71,"max":[0.999998927116394,0.9998440742492676,0.9998369812965393],"min":[-0.999998927116394,-0.999826967716217,-0.9998543858528137],"normalized":false,"type":"VEC3"},{"bufferView":3,"componentType":5126,"count":71,"max":[0.5062485933303833,0.5238116979598999],"min":[0.4754711091518402,0.24103151261806488],"normalized":false,"type":"VEC2"},{"bufferView":4,"componentType":5121,"count":132,"max":[70],"min":[0],"normalized":false,"type":"SCALAR"}],"asset":{"generator":"Godot Engine v4.6.2.stable.fedora@71f334935c000924d403448e698df4441130df18","version":"2.0"},"bufferViews":[{"buffer":0,"byteLength":852,"byteStride":12,"target":34962},{"buffer":0,"byteLength":1136,"byteOffset":852,"byteStride":16,"target":34962},{"buffer":0,"byteLength":852,"byteOffset":1988,"byteStride":12,"target":34962},{"buffer":0,"byteLength":568,"byteOffset":2840,"byteStride":8,"target":34962},{"buffer":0,"byteLength":132,"byteOffset":3408,"target":34963}],"buffers":[{"byteLength":3540,"uri":"rock0.bin"}],"extensionsUsed":["GODOT_single_root"],"materials":[{"name":"Material_6_001","pbrMetallicRoughness":{"baseColorFactor":[1.0,1.0,1.0,1.0],"metallicFactor":0.0,"roughnessFactor":1.0}}],"meshes":[{"name":"back_dor_pack_Grate_castle_part05(Fixed3)_Cube_002","primitives":[{"attributes":{"NORMAL":2,"POSITION":0,"TANGENT":1,"TEXCOORD_0":3},"indices":4,"material":0,"mode":4}]}],"nodes":[{"mesh":0,"name":"Cube_002"}],"scene":0,"scenes":[{"nodes":[0]}]}